<svg width="20" height="20" viewBox="0 0 20 20" fill="none" xmlns="http://www.w3.org/2000/svg">
<path d="M10 2C11.1046 2 12 2.89543 12 4C12 5.10457 11.1046 6 10 6C8.89543 6 8 5.10457 8 4C8 2.89543 8.89543 2 10 2Z" fill="currentColor"/>
<path d="M10 8C12.2091 8 14 9.79086 14 12V14H6V12C6 9.79086 7.79086 8 10 8Z" fill="currentColor"/>
<path d="M16 6C16.5523 6 17 6.44772 17 7V8C17 8.55228 16.5523 9 16 9C15.4477 9 15 8.55228 15 8V7C15 6.44772 15.4477 6 16 6Z" fill="currentColor"/>
<path d="M4 6C4.55228 6 5 6.44772 5 7V8C5 8.55228 4.55228 9 4 9C3.44772 9 3 8.55228 3 8V7C3 6.44772 3.44772 6 4 6Z" fill="currentColor"/>
<path d="M2 16C2 15.4477 2.44772 15 3 15H17C17.5523 15 18 15.4477 18 16C18 16.5523 17.5523 17 17 17H3C2.44772 17 2 16.5523 2 16Z" fill="currentColor"/>
<path d="M14 11C14.5523 11 15 11.4477 15 12V13C15 13.5523 14.5523 14 14 14C13.4477 14 13 13.5523 13 13V12C13 11.4477 13.4477 11 14 11Z" fill="currentColor"/>
<path d="M6 11C6.55228 11 7 11.4477 7 12V13C7 13.5523 6.55228 14 6 14C5.44772 14 5 13.5523 5 13V12C5 11.4477 5.44772 11 6 11Z" fill="currentColor"/>
</svg>
